PathFileType	4	(X/Y/Z)	Patient4_TMGait_0pt6_02_right_04.trc.trc
DataRate	CameraRate	NumFrames	NumMarkers	Units	OrigDataRate	OrigDataStartFrame	OrigNumFrames
76.923076923077	76.923076923077	4	33	mm	76.923076923077	18	       141
Frame#	Time	Sacral			L.Shoulder			Chest			R.Shoulder			Neck			R.ASIS			L.ASIS			R.Thigh.Superior			R.Thigh.Lateral			R.Thigh.Inferior			R.Patella			L.Thigh.Superior			L.Thigh.Lateral			L.Thigh.Inferior			L.Patella			L.Shank.Superior			L.Shank.Lateral			L.Shank.Inferior			R.Shank.Superior			R.Shank.Lateral			R.Shank.Inferior			R.Heel			R.Midfoot.Superior			R.Midfoot.Lateral			R.Toe			L.Heel			L.Midfoot.Lateral			L.Midfoot.Superior			L.Toe			L.Elbow			L.Wrist			R.Elbow			R.Wrist			
		X1	Y1	Z1	X2	Y2	Z2	X3	Y3	Z3	X4	Y4	Z4	X5	Y5	Z5	X6	Y6	Z6	X7	Y7	Z7	X8	Y8	Z8	X9	Y9	Z9	X10	Y10	Z10	X11	Y11	Z11	X12	Y12	Z12	X13	Y13	Z13	X14	Y14	Z14	X15	Y15	Z15	X16	Y16	Z16	X17	Y17	Z17	X18	Y18	Z18	X19	Y19	Z19	X20	Y20	Z20	X21	Y21	Z21	X22	Y22	Z22	X23	Y23	Z23	X24	Y24	Z24	X25	Y25	Z25	X26	Y26	Z26	X27	Y27	Z27	X28	Y28	Z28	X29	Y29	Z29	X30	Y30	Z30	X31	Y31	Z31	X32	Y32	Z32	X33	Y33	Z33	

18	4.381000000000	705.109041849268	1010.473096855131	452.172306613553	903.152747761336	1431.313442769976	268.152199614982	998.550410775122	1361.395048932726	432.602512163141	911.374679567660	1440.554215135866	601.789816223656	891.759117379924	1493.351491387686	418.674403097470	928.274737416278	943.622125762340	576.408134186428	926.814679766389	960.404481992050	300.191384182473	1001.365392073335	770.757729787885	551.816176108220	960.050718667660	652.029731304932	629.633808329978	1045.720199307077	611.305020254866	547.585866978353	1080.493704952716	529.736762826485	566.938814080148	926.858220457842	731.975660181263	335.295153015700	812.130392722692	635.886021393781	273.765051754152	872.959634759828	544.036557114993	339.411355221379	858.262373177730	478.691414723748	350.197797560417	828.024381882982	411.976781999185	343.407293234432	728.879201257741	304.572450184858	295.846745714384	770.304670120813	191.240896655803	369.634790550791	1064.477986456567	442.423655944716	579.609256730525	1014.251849555391	329.955457160195	647.371607296546	1082.591878409992	243.291048580228	595.447379728087	991.866885858353	54.273292747067	572.455546188166	1154.643121228487	131.106939371946	608.960015072944	1078.233237763729	52.956257976846	644.041887866334	1280.008380653767	95.497622523897	631.416882334488	631.959552560618	39.809677293814	416.801862937693	704.843765410626	35.804116630647	335.760523814326	789.416596293008	95.524460960207	360.676295061796	916.937106841335	40.005702796203	331.366038833049	917.735163665590	1089.053342934283	128.863797251117	1168.139822520189	1037.582914216864	125.429348568388	755.960592036411	1137.967213706493	720.803604201006	715.133651455316	881.636267758202	748.117307540214	
19	4.394000000000	705.914172762494	1008.754890437715	453.662834966249	902.965468028130	1430.192879480283	270.117554938737	998.278439981181	1360.300681421406	434.672316665315	910.717188795021	1439.377724859428	603.761838050478	891.809763145929	1492.158992333091	420.503394961273	928.770145266274	942.161120739468	578.403492635542	927.498198790320	958.863257548144	302.114587871785	999.612029940339	766.824196435817	554.715828726852	955.321366537895	648.267872042406	631.346938597204	1041.016053385973	607.142328012189	549.600967509434	1074.546693507734	526.961372991999	567.919800363455	925.807335218738	730.358410674020	336.954094692549	810.208460702898	635.299129298382	274.909053822893	869.728103807876	542.877205332303	340.746075582600	854.350221726142	477.515650657177	351.379539262613	823.477418691812	411.051368607982	344.373256837836	723.393404572747	304.673280978801	296.377389179752	763.492971306430	190.809732804334	370.021344526513	1061.026009815565	439.770612308601	580.326147186231	1013.237993020427	325.335220265409	646.630881369015	1084.858620725260	240.948613785270	594.703839332887	999.746733201418	49.602810612964	569.626004086269	1160.523198410470	129.877678783057	607.450221897409	1085.695588095616	49.971579395064	641.694219437885	1286.737534107397	97.170889991430	630.532712108427	624.111206276892	39.943857352977	416.762075940221	697.021485637359	35.858451558130	335.781503799418	781.586020848228	95.492150347473	360.801655295059	909.073814499198	39.892594532944	331.372509505865	917.775444557807	1088.024919228253	130.905353356255	1168.549489482828	1039.033422471197	128.671107577157	754.477195681060	1137.196279411973	721.845924807915	712.250419202225	880.976326330176	748.459001249517	
20	4.407000000000	706.947954263758	1006.912019799219	455.400246327457	902.657850583935	1429.041184699168	272.294016111421	998.024442508866	1359.230611700050	436.908730319731	910.039163213305	1438.102968354608	605.944652164969	891.794014420163	1490.923865721959	422.542258960956	929.530867652153	940.630590731916	580.509144879969	928.503432701146	957.406833682011	304.160816798822	998.504911453331	763.143462291664	557.664843648855	951.166542165526	644.560492859939	632.694159530374	1037.117443523978	603.322989070400	551.449638367697	1069.137261721783	524.021215930731	568.599236909444	925.101795074122	728.732139518934	338.602441202394	808.567782053215	634.695079894692	276.171261077032	866.897214056253	541.683902040440	342.086699555224	850.851032886964	476.218702060354	352.603788561530	819.261228273254	410.041026572963	345.370337132523	718.080618569971	304.828565457833	296.955586959979	756.752129873782	190.375081950553	370.399522873598	1057.444768121530	436.761542402190	580.650126976856	1010.964481113221	320.962761825610	645.389237037192	1084.877287589546	238.293199096966	593.539861229958	1003.390588188732	46.067917072017	566.546891212195	1162.888087508637	127.901603009542	605.450012329253	1088.845260293321	47.382739676385	639.108722562263	1289.457356007076	96.722702249892	629.227561497653	616.247803133114	40.143671895515	416.681679084550	689.213463498797	35.925914326988	335.784801480090	773.773672355785	95.483530310565	360.901634561436	901.225663952665	39.766867832404	331.368445410159	917.465197882309	1086.888747646965	133.155127026826	1168.461068775221	1039.494536080344	132.153621424278	753.818899378669	1135.810861706147	723.210073539362	711.192030815151	879.494152957062	748.858653850644	
21	4.420000000000	708.172996172926	1004.993816594685	457.374657463438	902.252249400653	1427.870308298001	274.687435210040	997.805646611835	1358.198837732081	439.322753947359	909.354904673501	1436.752820942408	608.346276289608	891.739280214546	1489.670676854494	424.799302263888	930.538731598083	939.059706267616	582.721308505659	929.755682947166	956.030647851637	306.336228523773	998.086196361966	759.778013156460	560.598627961618	947.671646507435	641.002169818572	633.662456965802	1034.087652947604	599.908893718753	553.100473809003	1064.376021323099	520.994697676024	568.953874265916	924.755696763533	727.134410816786	340.209193570444	807.235560384069	634.081815692847	277.549920105662	864.540749119676	540.464286354003	343.406273945547	847.860996384415	474.787078734824	353.831939974325	815.437929697477	408.944338605629	346.378003987776	712.978563457748	305.060977098984	297.575841276412	750.104377623476	189.952395305854	370.753114863594	1053.903589194526	433.486282378054	580.596851120141	1007.737530419953	316.858143284014	643.794433219018	1082.976570006190	235.307884261545	592.043891928850	1003.137377655396	43.513361436208	563.465386671129	1162.165295697242	125.127185351826	603.054941309216	1088.112303226904	45.094932168399	636.474773689985	1288.672154324201	94.104128077916	627.500401926724	608.366567256081	40.449681674370	416.553081696613	681.419492797754	36.013985452255	335.764470055869	765.996942411058	95.504589301146	360.958175223330	893.399783473354	39.627767621626	331.355136107265	916.806320844896	1085.644120502417	135.616936718922	1167.893273030513	1038.954432331466	135.856594354513	753.929834931554	1133.864147105647	724.891128673841	711.910643845116	877.245854144931	749.378007569680	
